{"title":"Ramji Londonwaley (2005) DVDRip 720p x264 AAC [ TaRa ].mkv","uid":15501278,"size":1197290424,"categoryP":"video","categoryS":"movies_dvdr","magnet":"?xt=urn:btih:5f0d72f28d7b5d3d10c488685e6c1d2c9d481fda&amp;dn=Ramji+Londonwaley+%282005%29+DVDRip+720p+x264+AAC+%5B+TaRa+%5D.mkv&amp;tr=udp%3A%2F%2Ftracker.leechers-paradise.org%3A6969&amp;tr=udp%3A%2F%2Fzer0day.ch%3A1337&amp;tr=udp%3A%2F%2Fopen.demonii.com%3A1337&amp;tr=udp%3A%2F%2Ftracker.coppersurfer.tk%3A6969&amp;tr=udp%3A%2F%2Fexodus.desync.com%3A6969","seeders":0,"leechers":1,"uploader":"MdTaRa","files":1,"time":1470513279,"description":"General\r\nRamji Londonwaley (2005) DVDRip 720p x264 AAC [ TaRa ].mkv\r\nFormat                      : Matroska\r\nFormat version              : Version 4 / Version 2\r\nFile size                   : 1.12 GiB\r\nDuration                    : 2 h 34 min\r\nOverall bit rate mode       : Variable\r\nOverall bit rate            : 1 032 kb/s\r\n========================================================================\r\nVideo\r\nID                          : 1\r\nFormat                      : AVC\r\nFormat/Info                 : Advanced Video Codec\r\nFormat profile              :   \r\nFormat settings, CABAC      : Yes\r\nFormat settings, ReFrames   : 3 frames\r\nCodec ID                    : V_MPEG4/ISO/AVC\r\nDuration                    : 2 h 34 min\r\nBit rate mode               : Variable\r\nBit rate                    : 934 kb/s\r\nMaximum bit rate            : 40.0 Mb/s\r\nWidth                       : 1 280 pixels\r\nHeight                      : 568 pixels\r\nDisplay aspect ratio        : 2.25:1\r\nFrame rate mode             : Constant\r\nFrame rate                  : 25.000 FPS\r\nColor space                 : YUV\r\nChroma subsampling          : 4:2:0\r\nBit depth                   : 8 bits\r\nScan type                   : Progressive\r\nBits/(Pixel*Frame)          : 0.051\r\nStream size                 : 1.01 GiB (90%)\r\nTitle                       : .....::::: TaRa :::::....\r\nLanguage                    : Hindi\r\nDefault                     : Yes\r\nForced                      : No\r\n=======================================================================\r\nAudio\r\nID                          : 2\r\nFormat                      : AAC\r\nFormat/Info                 : Advanced Audio Codec\r\nFormat profile              : LC\r\nCodec ID                    : A_AAC\r\nDuration                    : 2 h 34 min\r\nBit rate                    : 96.0 kb/s\r\nChannel(s)                  : 2 channels\r\nChannel positions           : Front: L R\r\nSampling rate               : 48.0 kHz\r\nFrame rate                  : 46.875 FPS (1024 spf)\r\nCompression mode            : Lossy\r\nDelay relative to video     : 9 ms\r\nStream size                 : 106 MiB (9%)\r\nTitle                       : .....::::: TaRa :::::....\r\nLanguage                    : Hindi\r\nDefault                     : Yes\r\nForced                      : No\r\n======================================================================= \nhttp://imgur.com/O9XKYGm \nhttp://imgur.com/9FkhfO9","torrent":{"xt":"urn:btih:5f0d72f28d7b5d3d10c488685e6c1d2c9d481fda","amp;dn":"Ramji+Londonwaley+%282005%29+DVDRip+720p+x264+AAC+%5B+TaRa+%5D.mkv","amp;tr":["udp%3A%2F%2Ftracker.leechers-paradise.org%3A6969","udp%3A%2F%2Fzer0day.ch%3A1337","udp%3A%2F%2Fopen.demonii.com%3A1337","udp%3A%2F%2Ftracker.coppersurfer.tk%3A6969","udp%3A%2F%2Fexodus.desync.com%3A6969"],"infoHash":"5f0d72f28d7b5d3d10c488685e6c1d2c9d481fda","infoHashBuffer":{"type":"Buffer","data":[95,13,114,242,141,123,93,61,16,196,136,104,94,108,29,44,157,72,31,218]},"announce":[],"urlList":[]}}